<?xml version="1.0" encoding="utf-8"?>
<!-- Generator: Adobe Illustrator 22.1.0, SVG Export Plug-In . SVG Version: 6.00 Build 0)  -->
<svg version="1.1" id="Layer_1" xmlns="http://www.w3.org/2000/svg" xmlns:xlink="http://www.w3.org/1999/xlink" x="0px" y="0px"
	 viewBox="0 0 330 181.3" style="enable-background:new 0 0 330 181.3;" xml:space="preserve">
<style type="text/css">
	.st0{fill:#FCFCFC;}
	.st1{fill:none;stroke:#0DAB76;stroke-linecap:round;}
	.st2{fill:#0DAB76;}
	.st3{fill:#C90D0C;}
	.st4{fill:none;stroke:#C90D0C;stroke-linecap:round;}
	.st5{fill:#808080;}
	.st6{font-family:'HelveticaCE-Regular';}
	.st7{font-size:5.544px;}
	.st8{font-size:4.752px;}
	.st9{fill:none;stroke:#C90D0C;}
</style>
<g id="Layer_2">
</g>
<g>
	<rect x="-1.8" class="st0" width="331.5" height="181.1"/>
	<title>C:/Users/Thien/Documents/EAGLE/projects/Hack for Good 2020.sch - sheet 1</title>
	<desc>generated by eagle2svg 1.4, developed by http://www.nicai-systems.de</desc>
	<g id="surface0">
		<g>
			<title>NET 0</title>
			<line class="st1" x1="34.6" y1="152.3" x2="34.6" y2="159.5"/>
			<line class="st1" x1="34.6" y1="159.5" x2="34.6" y2="173.9"/>
			<line class="st1" x1="5.8" y1="137.9" x2="5.8" y2="159.5"/>
			<line class="st1" x1="5.8" y1="159.5" x2="34.6" y2="159.5"/>
			<circle class="st2" cx="34.6" cy="159.5" r="1.4"/>
			<line class="st1" x1="185.8" y1="101.9" x2="200.2" y2="101.9"/>
			<line class="st1" x1="200.2" y1="101.9" x2="200.2" y2="109.1"/>
			<line class="st1" x1="171.4" y1="159.5" x2="171.4" y2="166.7"/>
			<line class="st1" x1="279.4" y1="22.7" x2="301" y2="22.7"/>
			<line class="st1" x1="301" y1="22.7" x2="301" y2="37.1"/>
			<line class="st1" x1="301" y1="37.1" x2="322.6" y2="37.1"/>
			<line class="st1" x1="322.6" y1="37.1" x2="322.6" y2="44.3"/>
			<line class="st1" x1="279.4" y1="58.7" x2="301" y2="58.7"/>
			<line class="st1" x1="301" y1="58.7" x2="301" y2="37.1"/>
			<circle class="st2" cx="301" cy="37.1" r="1.4"/>
		</g>
		<g>
			<title>NET N$2</title>
			<line class="st1" x1="185.8" y1="51.5" x2="200.2" y2="51.5"/>
			<line class="st1" x1="200.2" y1="51.5" x2="200.2" y2="22.7"/>
			<line class="st1" x1="200.2" y1="22.7" x2="214.6" y2="22.7"/>
		</g>
		<g>
			<title>NET N$3</title>
			<line class="st1" x1="243.4" y1="22.7" x2="250.6" y2="22.7"/>
		</g>
		<g>
			<title>NET N$4</title>
			<line class="st1" x1="185.8" y1="58.7" x2="214.6" y2="58.7"/>
		</g>
		<g>
			<title>NET N$5</title>
			<line class="st1" x1="243.4" y1="58.7" x2="250.6" y2="58.7"/>
		</g>
		<g>
			<title>NET N$6</title>
			<line class="st1" x1="92.2" y1="101.9" x2="34.6" y2="101.9"/>
			<line class="st1" x1="34.6" y1="101.9" x2="34.6" y2="109.1"/>
			<line class="st1" x1="34.6" y1="101.9" x2="5.8" y2="101.9"/>
			<line class="st1" x1="5.8" y1="116.3" x2="5.8" y2="101.9"/>
			<circle class="st2" cx="34.6" cy="101.9" r="1.4"/>
		</g>
		<g>
			<title>NET N$7</title>
			<line class="st1" x1="92.2" y1="80.3" x2="77.8" y2="80.3"/>
			<line class="st1" x1="77.8" y1="80.3" x2="77.8" y2="130.7"/>
			<line class="st1" x1="77.8" y1="130.7" x2="128.2" y2="130.7"/>
		</g>
		<g>
			<title>NET N$8</title>
			<line class="st1" x1="185.8" y1="87.5" x2="221.8" y2="87.5"/>
			<line class="st1" x1="221.8" y1="87.5" x2="221.8" y2="130.7"/>
			<line class="st1" x1="157" y1="130.7" x2="171.4" y2="130.7"/>
			<line class="st1" x1="171.4" y1="130.7" x2="171.4" y2="137.9"/>
			<line class="st1" x1="221.8" y1="130.7" x2="171.4" y2="130.7"/>
			<circle class="st2" cx="171.4" cy="130.7" r="1.4"/>
		</g>
		<g>
			<title>PART C1</title>
			<rect x="165.6" y="149.4" class="st3" width="11.5" height="1.4"/>
			<rect x="165.6" y="146.5" class="st3" width="11.5" height="1.4"/>
			<line class="st4" x1="171.4" y1="137.9" x2="171.4" y2="145.1"/>
			<line class="st4" x1="171.4" y1="159.5" x2="171.4" y2="152.3"/>
			<line class="st4" x1="171.4" y1="145.1" x2="171.4" y2="146.5"/>
			<line class="st4" x1="171.4" y1="152.3" x2="171.4" y2="150.8"/>
			<text transform="matrix(1 0 0 1 181.0602 150.8398)" class="st5 st6 st7">C1</text>
		</g>
		<g>
			<title>PART C2</title>
			<rect x="0" y="127.8" class="st3" width="11.5" height="1.4"/>
			<rect x="0" y="124.9" class="st3" width="11.5" height="1.4"/>
			<line class="st4" x1="5.8" y1="116.3" x2="5.8" y2="123.5"/>
			<line class="st4" x1="5.8" y1="137.9" x2="5.8" y2="130.7"/>
			<line class="st4" x1="5.8" y1="123.5" x2="5.8" y2="124.9"/>
			<line class="st4" x1="5.8" y1="130.7" x2="5.8" y2="129.2"/>
			<text transform="matrix(1 0 0 1 12.9606 116.2791)" class="st5 st6 st7">C2</text>
		</g>
		<g>
			<title>PART D1</title>
			<line class="st4" x1="250.6" y1="22.7" x2="257.8" y2="22.7"/>
			<line class="st4" x1="279.4" y1="22.7" x2="272.2" y2="22.7"/>
			<line class="st4" x1="257.8" y1="29.9" x2="257.8" y2="15.5"/>
			<line class="st4" x1="257.8" y1="15.5" x2="272.2" y2="22.7"/>
			<line class="st4" x1="272.2" y1="22.7" x2="257.8" y2="29.9"/>
			<line class="st4" x1="272.2" y1="15.5" x2="272.2" y2="29.9"/>
			<line class="st4" x1="257.8" y1="12.6" x2="261.4" y2="4.7"/>
			<line class="st4" x1="261.4" y1="4.7" x2="263.5" y2="9"/>
			<line class="st4" x1="263.5" y1="9" x2="267.1" y2="0.4"/>
			<line class="st4" x1="267.1" y1="0.4" x2="267.8" y2="4"/>
			<line class="st4" x1="267.8" y1="4" x2="264.2" y2="1.8"/>
			<line class="st4" x1="264.2" y1="1.8" x2="267.1" y2="0.4"/>
			<line class="st4" x1="264.2" y1="16.2" x2="267.8" y2="8.3"/>
			<line class="st4" x1="267.8" y1="8.3" x2="270" y2="12.6"/>
			<line class="st4" x1="270" y1="12.6" x2="273.6" y2="4"/>
			<line class="st4" x1="273.6" y1="4" x2="274.3" y2="7.6"/>
			<line class="st4" x1="274.3" y1="7.6" x2="270.7" y2="5.4"/>
			<line class="st4" x1="270.7" y1="5.4" x2="273.6" y2="4"/>
			<text transform="matrix(1 0 0 1 246.9597 12.2397)" class="st5 st6 st7">D1</text>
			<text transform="matrix(1 0 0 1 245.3102 20.1598)" class="st5 st6 st7">LED</text>
		</g>
		<g>
			<title>PART D2</title>
			<line class="st4" x1="250.6" y1="58.7" x2="257.8" y2="58.7"/>
			<line class="st4" x1="279.4" y1="58.7" x2="272.2" y2="58.7"/>
			<line class="st4" x1="257.8" y1="65.9" x2="257.8" y2="51.5"/>
			<line class="st4" x1="257.8" y1="51.5" x2="272.2" y2="58.7"/>
			<line class="st4" x1="272.2" y1="58.7" x2="257.8" y2="65.9"/>
			<line class="st4" x1="272.2" y1="51.5" x2="272.2" y2="65.9"/>
			<line class="st4" x1="257.8" y1="48.6" x2="261.4" y2="40.7"/>
			<line class="st4" x1="261.4" y1="40.7" x2="263.5" y2="45"/>
			<line class="st4" x1="263.5" y1="45" x2="267.1" y2="36.4"/>
			<line class="st4" x1="267.1" y1="36.4" x2="267.8" y2="40"/>
			<line class="st4" x1="267.8" y1="40" x2="264.2" y2="37.8"/>
			<line class="st4" x1="264.2" y1="37.8" x2="267.1" y2="36.4"/>
			<line class="st4" x1="264.2" y1="52.2" x2="267.8" y2="44.3"/>
			<line class="st4" x1="267.8" y1="44.3" x2="270" y2="48.6"/>
			<line class="st4" x1="270" y1="48.6" x2="273.6" y2="40"/>
			<line class="st4" x1="273.6" y1="40" x2="274.3" y2="43.6"/>
			<line class="st4" x1="274.3" y1="43.6" x2="270.7" y2="41.4"/>
			<line class="st4" x1="270.7" y1="41.4" x2="273.6" y2="40"/>
			<text transform="matrix(1 0 0 1 246.9597 47.8797)" class="st5 st6 st7">D2</text>
			<text transform="matrix(1 0 0 1 245.3098 56.1597)" class="st5 st6 st7">LED</text>
		</g>
		<g>
			<title>PART R1</title>
			<line class="st4" x1="214.6" y1="22.7" x2="221.8" y2="22.7"/>
			<line class="st4" x1="243.4" y1="22.7" x2="236.2" y2="22.7"/>
			<line class="st4" x1="221.8" y1="25.2" x2="236.2" y2="25.2"/>
			<line class="st4" x1="236.2" y1="20.2" x2="221.8" y2="20.2"/>
			<line class="st4" x1="236.2" y1="25.2" x2="236.2" y2="20.2"/>
			<line class="st4" x1="221.8" y1="25.2" x2="221.8" y2="20.2"/>
			<text transform="matrix(1 0 0 1 221.7604 15.4802)" class="st5 st6 st7">R1</text>
		</g>
		<g>
			<title>PART R2</title>
			<line class="st4" x1="214.6" y1="58.7" x2="221.8" y2="58.7"/>
			<line class="st4" x1="243.4" y1="58.7" x2="236.2" y2="58.7"/>
			<line class="st4" x1="221.8" y1="61.2" x2="236.2" y2="61.2"/>
			<line class="st4" x1="236.2" y1="56.2" x2="221.8" y2="56.2"/>
			<line class="st4" x1="236.2" y1="61.2" x2="236.2" y2="56.2"/>
			<line class="st4" x1="221.8" y1="61.2" x2="221.8" y2="56.2"/>
			<text transform="matrix(1 0 0 1 221.7604 51.4802)" class="st5 st6 st7">R2</text>
		</g>
		<g>
			<title>PART R3</title>
			<line class="st4" x1="128.2" y1="130.7" x2="135.4" y2="130.7"/>
			<line class="st4" x1="157" y1="130.7" x2="149.8" y2="130.7"/>
			<line class="st4" x1="135.4" y1="133.2" x2="149.8" y2="133.2"/>
			<line class="st4" x1="149.8" y1="128.2" x2="135.4" y2="128.2"/>
			<line class="st4" x1="149.8" y1="133.2" x2="149.8" y2="128.2"/>
			<line class="st4" x1="135.4" y1="133.2" x2="135.4" y2="128.2"/>
			<text transform="matrix(1 0 0 1 135.361 123.4802)" class="st5 st6 st7">R3</text>
		</g>
		<g>
			<title>PART U1</title>
			<line class="st4" x1="92.2" y1="58.7" x2="106.6" y2="58.7"/>
			<text transform="matrix(1 0 0 1 113.1842 60.8396)" class="st5 st6 st8">ADC</text>
			<line class="st4" x1="92.2" y1="65.9" x2="106.6" y2="65.9"/>
			<text transform="matrix(1 0 0 1 113.1842 68.0408)" class="st5 st6 st8">CH_PD</text>
			<line class="st4" x1="185.8" y1="101.9" x2="171.4" y2="101.9"/>
			<text transform="matrix(1 0 0 1 154.1764 104.0408)" class="st5 st6 st8">GND</text>
			<line class="st4" x1="185.8" y1="80.3" x2="171.4" y2="80.3"/>
			<text transform="matrix(1 0 0 1 150.2115 82.4392)" class="st5 st6 st8">GPIO0</text>
			<line class="st4" x1="185.8" y1="87.5" x2="171.4" y2="87.5"/>
			<text transform="matrix(1 0 0 1 150.2115 89.6404)" class="st5 st6 st8">GPIO2</text>
			<line class="st4" x1="185.8" y1="65.9" x2="171.4" y2="65.9"/>
			<text transform="matrix(1 0 0 1 150.2115 68.0408)" class="st5 st6 st8">GPIO4</text>
			<line class="st4" x1="185.8" y1="73.1" x2="171.4" y2="73.1"/>
			<text transform="matrix(1 0 0 1 150.2115 75.24)" class="st5 st6 st8">GPIO5</text>
			<line class="st4" x1="92.2" y1="87.5" x2="106.6" y2="87.5"/>
			<text transform="matrix(1 0 0 1 113.1842 89.6404)" class="st5 st6 st8">GPIO12</text>
			<line class="st4" x1="92.2" y1="94.7" x2="106.6" y2="94.7"/>
			<text transform="matrix(1 0 0 1 113.1842 96.8396)" class="st5 st6 st8">GPIO13</text>
			<line class="st4" x1="92.2" y1="80.3" x2="106.6" y2="80.3"/>
			<text transform="matrix(1 0 0 1 113.1842 82.4392)" class="st5 st6 st8">GPIO14</text>
			<line class="st4" x1="185.8" y1="94.7" x2="171.4" y2="94.7"/>
			<text transform="matrix(1 0 0 1 147.569 96.8396)" class="st5 st6 st8">GPIO15</text>
			<line class="st4" x1="92.2" y1="73.1" x2="106.6" y2="73.1"/>
			<text transform="matrix(1 0 0 1 113.1842 75.24)" class="st5 st6 st8">GPIO16</text>
			<line class="st4" x1="92.2" y1="51.5" x2="106.6" y2="51.5"/>
			<text transform="matrix(1 0 0 1 113.1842 53.6404)" class="st5 st6 st8">RESET</text>
			<line class="st4" x1="185.8" y1="58.7" x2="171.4" y2="58.7"/>
			<text transform="matrix(1 0 0 1 158.1354 60.8396)" class="st5 st6 st8">RX</text>
			<line class="st4" x1="185.8" y1="51.5" x2="171.4" y2="51.5"/>
			<text transform="matrix(1 0 0 1 158.6647 53.6404)" class="st5 st6 st8">TX</text>
			<line class="st4" x1="92.2" y1="101.9" x2="106.6" y2="101.9"/>
			<text transform="matrix(1 0 0 1 113.1842 104.0408)" class="st5 st6 st8">VCC</text>
			<line class="st4" x1="106.6" y1="44.3" x2="106.6" y2="109.1"/>
			<line class="st4" x1="106.6" y1="109.1" x2="171.4" y2="109.1"/>
			<line class="st4" x1="171.4" y1="109.1" x2="171.4" y2="44.3"/>
			<line class="st4" x1="171.4" y1="44.3" x2="106.6" y2="44.3"/>
			<text transform="matrix(1 0 0 1 106.5602 44.2791)" class="st5 st6 st7">U1</text>
		</g>
		<g>
			<title>PART V1</title>
			<circle class="st9" cx="34.6" cy="130.7" r="14.4"/>
			<line class="st4" x1="34.6" y1="109.1" x2="34.6" y2="116.3"/>
			<line class="st4" x1="34.6" y1="152.3" x2="34.6" y2="145.1"/>
			<line class="st4" x1="31" y1="123.5" x2="38.2" y2="123.5"/>
			<line class="st4" x1="34.6" y1="119.9" x2="34.6" y2="127.1"/>
			<line class="st4" x1="31" y1="137.9" x2="38.2" y2="137.9"/>
			<text transform="matrix(1 0 0 1 52.6609 128.1595)" class="st5 st6 st7">V1</text>
			<text transform="matrix(1 0 0 1 52.6608 135.4294)" class="st5 st6 st7">3.3V</text>
		</g>
		<g>
			<title>PART X_1</title>
			<line class="st4" x1="27.4" y1="173.9" x2="41.8" y2="173.9"/>
			<line class="st4" x1="41.8" y1="173.9" x2="34.6" y2="181.1"/>
			<line class="st4" x1="34.6" y1="181.1" x2="27.4" y2="173.9"/>
		</g>
		<g>
			<title>PART X_2</title>
			<line class="st4" x1="193" y1="109.1" x2="207.4" y2="109.1"/>
			<line class="st4" x1="207.4" y1="109.1" x2="200.2" y2="116.3"/>
			<line class="st4" x1="200.2" y1="116.3" x2="193" y2="109.1"/>
		</g>
		<g>
			<title>PART X_3</title>
			<line class="st4" x1="315.4" y1="44.3" x2="329.8" y2="44.3"/>
			<line class="st4" x1="329.8" y1="44.3" x2="322.6" y2="51.5"/>
			<line class="st4" x1="322.6" y1="51.5" x2="315.4" y2="44.3"/>
		</g>
		<g>
			<title>PART X_4</title>
			<line class="st4" x1="164.2" y1="166.7" x2="178.6" y2="166.7"/>
			<line class="st4" x1="178.6" y1="166.7" x2="171.4" y2="173.9"/>
			<line class="st4" x1="171.4" y1="173.9" x2="164.2" y2="166.7"/>
		</g>
	</g>
</g>
</svg>
